# xmcd
#
# Track frame offsets: 
#        150
#        22930
#        43075
#        66230
#        82482
#        104252
#        120550
#        144445
#        167700
#        185565
#        198440
#
# Disc length: 3041 seconds
#
# Revision: 6
# Processed by: cddbd v1.5.2PL0 Copyright (c) Steve Scherf et al.
# Submitted via: ExactAudioCopy v1.1
#
DISCID=9b0bdf0b
DTITLE=Cray Band, The Robert - Shame and A Sin
DYEAR=1993
DGENRE=Blues
TTITLE0=1040 Blues
TTITLE1=Some Pain, Some Shame
TTITLE2=I Shiver
TTITLE3=You're Gonna Need Me
TTITLE4=Don't Break This Ring
TTITLE5=Stay Go
TTITLE6=Leave Well Enough Alone
TTITLE7=Passing By
TTITLE8=I'm Just Lucky That Way
TTITLE9=Well I Lied
TTITLE10=Up And Down
EXTD=YEAR: 1993\nMercury  518 517-2
EXTT0=
EXTT1=
EXTT2=
EXTT3=
EXTT4=
EXTT5=
EXTT6=
EXTT7=
EXTT8=
EXTT9=
EXTT10=
PLAYORDER=
